<svg height="800" viewBox="0 0 512 512" width="800" xmlns="http://www.w3.org/2000/svg"><path d="m488.727 100.848h-116.363v-69.818c0-12.853-10.42-23.273-23.273-23.273h-186.182c-12.853 0-23.273 10.42-23.273 23.273v69.818h-116.363c-12.853 0-23.273 10.42-23.273 23.273v170.667c0 11.247 8.045 20.885 19.11 22.897l11.92 2.166v161.119c0 12.853 10.42 23.273 23.273 23.273h403.394c12.853 0 23.273-10.42 23.273-23.273v-161.119l11.922-2.166c11.064-2.012 19.108-11.65 19.108-22.897v-170.667c0-12.853-10.42-23.273-23.273-23.273zm-302.545-46.545h139.636v46.545h-139.636zm248.242 403.394h-356.848v-129.382l93.091 16.925v27.124c0 12.853 10.42 23.273 23.273 23.273h124.121c12.853 0 23.273-10.42 23.273-23.273v-27.122l93.091-16.925v129.38zm-217.212-108.606v-46.545h77.576v46.545zm248.243-73.727-124.121 22.568v-18.66c0-12.853-10.42-23.273-23.273-23.273h-124.122c-12.853 0-23.273 10.42-23.273 23.273v18.66l-124.121-22.568v-127.97h116.364 186.182 116.364z"/></svg>